<svg xmlns="http://www.w3.org/2000/svg" width="16" height="16"><style type="text/css">.icon-canvas-transparent{opacity:0;fill:#f6f6f6}.icon-vs-out{fill:#f6f6f6}.icon-vs-bg{fill:#424242}.icon-vs-action-green{fill:#388a34}</style><path id="canvas" d="M16 16h-16v-16h16v16z" class="icon-canvas-transparent"/><path id="outline" d="M16 6v9h-8v-3h-2v2h-6v-7h2.019v-1h-2.019v-3.982h2.019v-2.018h3.981v2.018h2v3.982h-2v3h2v-3h8z" class="icon-vs-out"/><path id="iconBg" d="M15 14h-6v-7h6v7zm-10-6h-4v5h4v-5zm3 2h-2v1h2v-1z" class="icon-vs-bg"/><path id="colorAction" d="M7 3.018h-2v-2.018h-1.981v2.018h-2.019v1.982h2.019v2h1.981v-2h2v-1.982z" class="icon-vs-action-green"/></svg>