<svg xmlns="http://www.w3.org/2000/svg" width="16" height="16"><style type="text/css">.icon-canvas-transparent{opacity:0;fill:#f6f6f6}.icon-vs-out{fill:#f6f6f6}.icon-vs-fg{fill:#f0eff1}.icon-vs-action-blue{fill:#00539c}</style><path id="canvas" d="M16 16h-16v-16h16v16z" class="icon-canvas-transparent"/><path id="outline" d="M15 8c0 3.9-3.1 7-7 7s-7-3.1-7-7 3.1-7 7-7 7 3.1 7 7z" class="icon-vs-out"/><path id="iconBg" d="M2 8c0 3.2 2.8 6 6 6s6-2.8 6-6-2.8-6-6-6-6 2.8-6 6zm2 0l3-3h2l-2 2h5v2h-5l2 2h-2l-3-3z" class="icon-vs-action-blue"/><path id="iconFg" d="M4 8l3-3h2l-2 2h5v2h-5l2 2h-2l-3-3z" class="icon-vs-fg"/></svg>