<svg xmlns="http://www.w3.org/2000/svg" width="16" height="16"><style type="text/css">.icon-canvas-transparent{opacity:0;fill:#f6f6f6}.icon-vs-out{fill:#f6f6f6}.icon-vs-bg{fill:#424242}.icon-vs-fg{fill:#f0eff1}.icon-vs-action-blue{fill:#00539c}</style><path id="canvas" d="M16 16h-16v-16h16v16z" class="icon-canvas-transparent"/><path id="outline" d="M15 10h-2v2h-2v2h-9v-9h2v-2h2v-2h9v9z" class="icon-vs-out"/><path id="iconBg" d="M14 2v7h-1v-6h-6v-1h7zm-9 2v1h6v6h1v-7h-7zm5 2v7h-7v-7h7zm-1 1h-5v5h5v-5z" class="icon-vs-bg"/><path id="iconFg" d="M4 7v5h5v-5h-5zm4 3h-3v-1h3v1z" class="icon-vs-fg"/><path id="colorAction" d="M8 10h-3v-1.031l3 .031v1z" class="icon-vs-action-blue"/></svg>