<svg xmlns="http://www.w3.org/2000/svg" enable-background="new 0 0 16 16" viewBox="0 0 16 16"><style type="text/css">.icon-canvas-transparent{opacity:0;fill:#f6f6f6}.icon-vs-out{fill:#f6f6f6}.icon-vs-fg{fill:#f0eff1}.icon-vs-action-purple{fill:#652d90}</style><path id="canvas" d="M16 16h-16v-16h16v16z" class="icon-canvas-transparent"/><path id="outline" d="M15 3.349v8.403l-6.025 4.248h-.905l-7.07-4.418v-8.255l6.595-3.327h1.118l6.287 3.349z" class="icon-vs-out"/><path id="iconFg" d="M12.715 4.398l-4.228 2.622-4.922-2.748 4.578-2.309 4.572 2.435zm-9.715.704l5 2.792v5.705l-5-3.125v-5.372zm6 8.434v-5.658l4-2.48v5.317l-4 2.821z" class="icon-vs-fg"/><path id="iconBg" d="M8.156.837l-6.156 3.105v7.085l6.517 4.073 5.483-3.867v-7.283l-5.844-3.113zm4.559 3.561l-4.228 2.622-4.922-2.748 4.578-2.309 4.572 2.435zm-9.715.704l5 2.792v5.705l-5-3.125v-5.372zm6 8.434v-5.658l4-2.48v5.317l-4 2.821z" class="icon-vs-action-purple"/></svg>