<svg xmlns="http://www.w3.org/2000/svg" xmlns:svg="http://www.w3.org/2000/svg" id="svg9" width="16" height="16" version="1.1"><metadata id="metadata15"/><style id="style2" type="text/css">.icon-canvas-transparent{opacity:0;fill:#f6f6f6}.icon-vs-out{fill:#f6f6f6}.icon-vs-bg{fill:#424242}.icon-vs-fg{fill:#f0eff1}</style><path id="canvas" d="M16 16h-16v-16h16v16z" class="icon-canvas-transparent"/><path id="outline" d="m 16,11 v 5 H 9 V 10.99501 H 9.1 C 9.2310581,9.8293885 9.2629692,8.007 12.422,8.007 L 12.594,8 c 2.78,0 3.21,1.827 3.329,3 z" class="icon-vs-out" style="fill:#f6f6f6"/><path id="notificationBg" d="M10.018 11.531c.13-1.125.18-2.531 2.576-2.531 2.227 0 2.285 1.412 2.37 2.531h-.966c-.014-.746-.155-1.541-1.404-1.541-1.241 0-1.516.812-1.575 1.541h-1.001zm4.982.469v3h-5v-3h5zm-2 1h-1v1h1v-1z" class="icon-vs-bg"/><path id="notificationFg" d="M12 13h1v1h-1v-1z" class="icon-vs-fg"/><style id="style17" type="text/css">.icon-canvas-transparent{opacity:0;fill:#f6f6f6}.icon-vs-out{fill:#f6f6f6}.icon-vs-bg{fill:#424242}.icon-vs-fg{fill:#f0eff1}</style></svg>