<svg xmlns="http://www.w3.org/2000/svg" xmlns:svg="http://www.w3.org/2000/svg" id="svg8" width="16" height="16" version="1.1"><metadata id="metadata14"/><style id="style2" type="text/css">.icon-canvas-transparent{opacity:0;fill:#f6f6f6}.icon-vs-bg{fill:#424242}</style><path id="canvas" d="M16 16h-16v-16h16v16z" class="icon-canvas-transparent"/><path style="fill:#f6f6f6" id="outline" d="M 13.042969 8.953125 C 12.874161 8.9677415 12.691141 9.0136719 12.494141 9.1386719 C 12.294313 9.0135149 12.09064 8.9550781 11.3125 8.9550781 C 10.596915 8.9550781 9.2534415 9.8075932 9.0390625 11 L 8.9433594 11 L 8.34375 9 L 6.8554688 9 L 6.2558594 11 L 4.0996094 11 L 4.0996094 12.5 L 5.4921875 13.544922 L 4.7558594 16 L 6.4335938 16 L 7.5996094 15.125 L 8.7675781 16 L 10.443359 16 L 9.7070312 13.544922 L 9.8183594 13.460938 C 10.414825 14.142547 11.740234 15.623047 11.740234 15.623047 L 12.037109 15.955078 L 12.947266 15.955078 L 13.246094 15.603516 C 13.246094 15.603516 15.082531 13.444359 15.394531 13.068359 C 15.737531 12.626359 15.933594 12.407 15.933594 11.4375 C 15.933594 10.468 14.820906 8.9550781 13.503906 8.9550781 C 13.365906 8.9550781 13.211777 8.9385085 13.042969 8.953125 z"/><path id="iconBg" d="m 13.504709,9.9558058 c -0.527,0 -0.86,0.7470002 -1.071,1.2500002 -0.211,-0.503 -0.545,-1.2500002 -1.071,-1.2500002 -0.728,0 -1.4290002,0.6640002 -1.4290002,1.4820002 0,0.375 0.1270002,0.756 0.3290002,1.018 0.29,0.35 2.222,2.5 2.222,2.5 0,0 1.829,-2.15 2.119,-2.5 0.203,-0.262 0.33,-0.643 0.33,-1.018 0,-0.818 -0.7,-1.4820002 -1.429,-1.4820002 z" class="icon-vs-bg" style="fill:#424242"/><path id="notificationBg" d="m 9.0999995,15 -1.5,-1.125 -1.5,1.125 0.551,-1.837 L 5.1,12 h 1.8999995 l 0.6,-2 0.6,2 h 1.8999995 l -1.5509995,1.163 z" class="icon-vs-bg" style="fill:#424242"/></svg>