<svg xmlns="http://www.w3.org/2000/svg" xmlns:svg="http://www.w3.org/2000/svg" id="svg8" width="16" height="16" version="1.1"><metadata id="metadata14"/><style id="style2" type="text/css">.icon-canvas-transparent{opacity:0;fill:#f6f6f6}.icon-vs-out{fill:#f6f6f6}.icon-vs-red{fill:#e51400}.icon-white{fill:#fff}</style><path id="canvas" d="M 16.016949,16 H 9.0169494 V 9 h 6.9999996 z" class="icon-canvas-transparent" style="opacity:0;fill:#f6f6f6;stroke-width:.43750003"/><path id="outline" d="m 9.0169494,12.5 c 0,-1.932875 1.5671326,-3.5 3.4999996,-3.5 1.932883,0 3.5,1.567125 3.5,3.5 0,1.932875 -1.567117,3.5 -3.5,3.5 -1.932867,0 -3.4999996,-1.567125 -3.4999996,-3.5 z" class="icon-vs-out" style="fill:#f6f6f6;stroke-width:.43750003"/><path id="iconBg" d="m 12.516949,9.4375003 c -1.690934,0 -3.0624996,1.3711247 -3.0624996,3.0624997 0,1.690937 1.3715656,3.0625 3.0624996,3.0625 1.690934,0 3.0625,-1.371563 3.0625,-3.0625 0,-1.691375 -1.371566,-3.0624997 -3.0625,-3.0624997 z m -2.1875,3.4999997 v -0.875 h 4.375 v 0.875 z" class="icon-vs-red" style="fill:#e51400;stroke-width:.43750003"/><path id="iconFg" d="m 14.704449,12.9375 h -4.375 v -0.875 h 4.375 z" class="icon-white" style="fill:#fff;stroke-width:.43750003"/></svg>