<svg xmlns="http://www.w3.org/2000/svg" xmlns:svg="http://www.w3.org/2000/svg" id="svg8" width="16" height="16" version="1.1"><metadata id="metadata14"/><style id="style2" type="text/css">.icon-canvas-transparent{opacity:0;fill:#f6f6f6}.icon-vs-out{fill:#f6f6f6}.icon-vs-bg{fill:#424242}</style><path id="canvas-5" d="M 16,16 H 8.927223 V 8.927223 H 16 Z" class="icon-canvas-transparent" style="opacity:0;fill:#f6f6f6;stroke-width:.44204855"/><path id="outline-2" d="M 12.1418,15.658296 C 12.046318,15.557067 9.8055735,13.178404 9.4466301,12.77614 9.118188,12.382275 8.927223,11.839439 8.927223,11.312517 c 0,-1.143138 1.0330675,-2.1461457 2.210243,-2.1461457 0.383698,0 0.884539,0.1357089 1.326145,0.6895957 0.441607,-0.5538868 0.942448,-0.6895957 1.326146,-0.6895957 1.177176,0 2.210243,1.0030077 2.210243,2.1461457 0,0.52648 -0.191407,1.069758 -0.51145,1.452572 -0.368227,0.412873 -2.607645,2.791536 -2.702685,2.892765 L 12.463611,16 Z" class="icon-vs-out" style="fill:#f6f6f6;stroke-width:.44204855"/><path id="iconBg-1" d="m 15.557951,11.312517 c 0,0.430113 -0.157369,0.868625 -0.408452,1.169218 -0.358944,0.402265 -2.685888,2.873316 -2.685888,2.873316 0,0 -2.328269,-2.471051 -2.6867707,-2.873316 -0.2510835,-0.300593 -0.4075687,-0.739105 -0.4075687,-1.169218 0,-0.941121 0.8677414,-1.7040972 1.7681944,-1.7040972 0.652021,0 1.064895,0.5269222 1.326145,1.1051212 0.261251,-0.578199 0.67324,-1.1051212 1.326146,-1.1051212 0.901337,0 1.768194,0.7634182 1.768194,1.7040972 z" class="icon-vs-bg" style="fill:#424242;stroke-width:.44204855"/></svg>