<svg xmlns="http://www.w3.org/2000/svg" xmlns:svg="http://www.w3.org/2000/svg" id="svg8" width="16" height="16" version="1.1"><metadata id="metadata14"/><style id="style2" type="text/css">.icon-canvas-transparent{opacity:0;fill:#f6f6f6}.icon-vs-bg{fill:#424242}</style><path id="canvas" d="M16 16h-16v-16h16v16z" class="icon-canvas-transparent"/><path style="fill:#f6f6f6" id="outline" d="M 11.736328 9 L 11.136719 11 L 10.632812 11 C 10.415044 10.054102 9.8177904 9.0078125 7.8417969 9.0078125 L 7.6914062 9.0136719 C 4.9301226 9.0136719 4.9016665 10.606139 4.7871094 11.625 L 4.6992188 11.625 L 4.6992188 16 L 9.6386719 16 L 10.818359 16 L 11.314453 16 L 12.482422 15.125 L 13.650391 16 L 15.326172 16 L 14.589844 13.544922 L 15.982422 12.5 L 15.982422 11 L 13.826172 11 L 13.226562 9 L 11.736328 9 z"/><path id="notificationBg" d="m 13.98242,15 -1.5,-1.125 -1.5,1.125 0.551,-1.837 L 9.9824205,12 H 11.88242 l 0.6,-2 0.6,2 h 1.9 l -1.551,1.163 z" class="icon-vs-bg" style="fill:#424242"/><path id="notificationBg-3" d="m 5.5898257,12.093683 c 0.113632,-0.983354 0.1573366,-2.212327 2.251661,-2.212327 1.9466033,0 1.9973013,1.234218 2.0715993,2.212327 H 9.0687116 c -0.01224,-0.652073 -0.135484,-1.346976 -1.2272249,-1.346976 -1.0847481,0 -1.3251235,0.709763 -1.3766949,1.346976 z m 4.3547273,0.409949 v 2.622276 H 5.5740921 V 12.503632 Z M 8.1963686,13.377724 H 7.3222761 v 0.874092 h 0.8740925 z" class="icon-vs-bg" style="fill:#424242;stroke-width:.87409204"/><path id="notificationFg" d="m 7.3222761,13.377724 h 0.8740915 v 0.874092 H 7.3222761 Z" class="icon-vs-fg" style="fill:#f6f6f6;fill-opacity:1;stroke-width:.87409204"/></svg>