<svg xmlns="http://www.w3.org/2000/svg" xmlns:svg="http://www.w3.org/2000/svg" id="svg20" enable-background="new 0 0 16 16" version="1.1" viewBox="0 0 16 16"><metadata id="metadata26"/><style id="style10" type="text/css">.icon-canvas-transparent{opacity:0;fill:#f6f6f6}.icon-vs-bg{fill:#424242}.icon-vs-fg{fill:#f0eff1}.icon-vs-action-purple{fill:#652d90}</style><path id="canvas" d="M16 16h-16v-16h16v16z" class="icon-canvas-transparent"/><path style="fill:#f6f6f6" id="outline" d="M 10.580078 0 L 9.0507812 1.5292969 L 9.5195312 2 L 4.9941406 2 L 4.9941406 4.7753906 L 4.8632812 4.7070312 L -0.021484375 7.1757812 L -0.021484375 12.746094 L 5.1015625 15.972656 L 9.5664062 12.701172 L 9.5664062 7.1875 L 7.3144531 6 L 9.5195312 6 L 9.0507812 6.4707031 L 10.580078 8 L 12.470703 8 L 15.994141 4.4746094 L 15.994141 3.5253906 L 12.470703 0 L 10.580078 0 z"/><path style="fill:#424242" id="path17" d="m 8.965,3.03 v 2 h -1 v -2 z m -3,0 v 2 h 1 v -2 z m 4.47,-1.47 1.469,1.47 H 9.965 v 2 h 1.939 l -1.47,1.47 1.061,1.06 3.53,-3.53 -3.53,-3.53 z" class="icon-vs-bg"/><path style="fill:#652d90" id="path15" d="M 8.5663208,12.194755 V 7.7917547 l -3.714,-1.959 -3.87400005,1.959 v 4.4030003 l 4.08100005,2.57 z m -3.76,-5.6860003 3.07,1.514 -2.864,1.718 -3.095,-1.766 z m -0.024,7.3740003 v 0.016 l -0.01,-0.008 -0.008,0.007 v -0.015 l -3.167,-2.065 V 8.4987547 l 3.209,1.7930003 v 3.573 z m 3.219,-1.963 -2.576,1.856 v -3.463 l 2.576,-1.5660003 z" class="icon-vs-action-purple"/><path id="iconFg" d="m 4.8063208,6.5087547 3.07,1.514 -2.864,1.718 -3.095,-1.766 z m 0,7.3560003 v -3.573 l -3.209,-1.7930003 v 3.3190003 l 3.167,2.064 v 0.016 l 0.008,-0.008 0.01,0.008 v -0.015 z m 3.195,-5.1180003 -2.576,1.5660003 v 3.463 l 2.576,-1.856 z" class="icon-vs-fg" style="fill:#f0eff1"/></svg>