<svg xmlns="http://www.w3.org/2000/svg" xmlns:svg="http://www.w3.org/2000/svg" id="svg12" version="1.1" viewBox="0 0 16 16"><metadata id="metadata18"/><style id="style2">.st1{fill:#f6f6f6}.st2{fill:#424242}</style><rect id="rect3802" width="16" height="16" x="-.034" y=".034" style="stroke:none;fill:#fff;fill-opacity:0"/><g id="g3796"><path style="display:inline;fill:#f6f6f6;stroke-width:.66101694" id="path6" d="m 14.940678,2.7118644 c 0,1.9830508 0,3.9661017 0,5.9491526 -1.762712,0 -3.525424,0 -5.2881356,0 0,-0.661017 0,-1.3220339 0,-1.9830509 -0.440678,0 -0.8813559,0 -1.3220339,0 0,0.440678 0,0.8813557 0,1.3220339 -1.3220339,0 -2.6440678,0 -3.9661017,0 0,-1.5423729 0,-3.0847458 0,-4.6271186 1.3220339,0 2.6440678,0 3.9661017,0 0,0.4406779 0,0.8813559 0,1.3220338 0.440678,0 0.8813559,0 1.3220339,0 0,-0.6610169 0,-1.3220338 0,-1.9830508 1.7627116,0 3.5254236,0 5.2881356,0 z"/><path id="path9" d="M 5.0254237,4.0338983 H 7.6694915 V 7.3389831 H 5.0254237 Z M 10.313559,3.3728814 h 3.966102 V 8 H 10.313559 Z M 8.3305085,5.3559322 H 9.6525424 V 6.0169491 H 8.3305085 Z" class="st2" style="fill:#424242;stroke-width:.66101694"/></g><g id="g3800"><path id="path6-8" d="m 11.635593,6.677966 v 5.949153 H 6.3474576 V 10.644068 H 5.0254237 v 1.322034 H 1.059322 V 7.338983 H 5.0254237 V 8.6610169 H 6.3474576 V 6.677966 Z" class="st1" style="fill:#f6f6f6;stroke-width:.66101694"/><path id="path9-3" d="M 1.720339,7.9999999 H 4.3644068 V 11.305085 H 1.720339 Z M 7.0084746,7.338983 h 3.9661014 v 4.627119 H 7.0084746 Z M 5.0254237,9.3220339 H 6.3474576 V 9.9830508 H 5.0254237 Z" class="st2" style="fill:#424242;stroke-width:.66101694"/></g></svg>