<svg xmlns="http://www.w3.org/2000/svg" xmlns:svg="http://www.w3.org/2000/svg" id="svg8" enable-background="new 0 0 16 16" version="1.1" viewBox="0 0 16 16"><metadata id="metadata14"/><style id="style2" type="text/css">.icon-canvas-transparent{opacity:0;fill:#f6f6f6}.icon-vs-out{fill:#f6f6f6}.icon-vs-fg{fill:#f0eff1}.icon-vs-action-purple{fill:#652d90}</style><path id="canvas" d="M16 16h-16v-16h16v16z" class="icon-canvas-transparent"/><path id="outline" d="M 14.712363,1.9097912 V 6.7016619 L 11.276564,9.1241143 H 10.760481 L 6.7287634,6.6047182 V 1.8972455 L 10.48961,0 h 0.637546 z" class="icon-vs-out" style="fill:#f6f6f6;stroke-width:.57025713"/><path id="iconFg" d="M 13.409326,2.5079909 10.998279,4.0032051 8.1914729,2.4361385 10.802111,1.1194148 Z M 7.8692777,2.909452 10.720563,4.5016099 v 3.253317 L 7.8692777,5.9728733 Z M 11.290821,7.7190006 V 4.4924858 l 2.281028,-1.4142377 v 3.0320572 z" class="icon-vs-fg" style="fill:#f0eff1;stroke-width:.57025713"/><path id="iconBg" d="M 10.809523,0.47730523 7.2990205,2.2479537 V 6.2882255 L 11.015387,8.6108829 14.142106,6.4056984 V 2.2525157 Z M 13.409326,2.5079909 10.998279,4.0032051 8.1914729,2.4361385 10.802111,1.1194148 Z M 7.8692777,2.909452 10.720563,4.5016099 v 3.253317 L 7.8692777,5.9728733 Z M 11.290821,7.7190006 V 4.4924858 l 2.281028,-1.4142377 v 3.0320572 z" class="icon-vs-action-purple" style="fill:#652d90;stroke-width:.57025713"/><path id="outline-4" d="M 9.6816129,8.7585278 V 13.548601 L 6.2471024,15.970143 H 5.7312144 L 1.7010089,13.451692 V 8.7459868 L 5.4604432,6.8494533 h 0.6373085 z" class="icon-vs-out" style="fill:#f6f6f6;stroke-width:.57004309"/><path id="iconFg-4" d="M 8.3790645,9.3565032 5.9689214,10.851156 3.16317,9.2846777 5.7728268,7.9684481 Z M 2.8410948,9.7578136 5.6913109,11.349374 V 14.60147 L 2.8410948,12.820085 Z M 6.2613539,14.565557 V 11.340253 L 8.541527,9.9265461 v 3.0309199 z" class="icon-vs-fg" style="fill:#f0eff1;stroke-width:.57004309"/><path id="iconBg-2" d="M 5.7802377,7.3265795 2.271052,9.0965632 v 4.0387558 l 3.7149707,2.321786 3.1255472,-2.204357 V 9.1011244 Z M 8.3790645,9.3565032 5.9689214,10.851156 3.16317,9.2846777 5.7728268,7.9684481 Z M 2.8410948,9.7578136 5.6913109,11.349374 V 14.60147 L 2.8410948,12.820085 Z M 6.2613539,14.565557 V 11.340253 L 8.541527,9.9265461 v 3.0309199 z" class="icon-vs-action-purple" style="fill:#652d90;stroke-width:.57004309"/></svg>